<?xml version="1.0" encoding="utf-8"?>
<!-- Generator: Adobe Illustrator 22.0.1, SVG Export Plug-In . SVG Version: 6.00 Build 0)  -->
<svg version="1.1" id="Layer_1" xmlns="http://www.w3.org/2000/svg" xmlns:xlink="http://www.w3.org/1999/xlink" x="0px" y="0px"
	 viewBox="0 0 357.3 73.5" style="enable-background:new 0 0 357.3 73.5;" xml:space="preserve">
<style type="text/css">
	.st0{fill:#FFFFFF;}
	.st1{fill:#00AAF0;}
</style>
<g>
	<rect x="73.1" y="18.5" class="st0" width="9.5" height="36.5"/>
	<path class="st0" d="M103.6,27.7c-3.2,0-6.7,1.7-8.3,4.4h-0.1v-3.6h-8.4V55h8.7V40.6c0-2.9,1.4-5.7,4.7-5.7c4.7,0,4.3,3.7,4.3,7.3
		V55h8.7V38C113.2,34.2,112.5,27.7,103.6,27.7z"/>
	<polygon class="st0" points="132.7,28.5 127.8,46 127.7,46 122.9,28.5 113.8,28.5 122.7,55 132.7,55 141.6,28.5 	"/>
	<path class="st0" d="M155.3,27.7c-7.8,0-14.3,5.8-14.3,13.9c0,8.9,5.9,14.1,14.5,14.1c5.9,0,11.6-2.7,13.2-8.8h-8.1
		c-0.8,1.9-2.9,2.9-5,2.9c-3.7,0-5.8-2.4-5.9-6h19.5C169.5,34.9,164.8,27.7,155.3,27.7z M149.7,39c0.5-3.2,2.6-5.4,5.6-5.4
		c2.9,0,5,2.5,5.2,5.4H149.7z"/>
	<path class="st0" d="M188.8,39.2c-4-0.9-9.8-1.3-9.8-3.8c0-1.8,2.3-2,3.7-2c1.1,0,2,0.2,2.8,0.7c0.7,0.5,1.1,1.2,1.1,2.3h8
		c-0.3-6.9-6.4-8.6-12.2-8.6c-5.2,0-12.1,1.7-12.1,8.1c0,7.2,6.8,7.3,12.3,8.7c1.5,0.4,4.2,0.8,4.2,2.8c0,2.1-2.4,2.8-4.1,2.8
		c-1.2,0-2.4-0.3-3.2-0.9c-0.9-0.7-1.4-1.6-1.4-3h-8.3c0.3,7.4,6.7,9.5,13,9.5c6,0,12.7-2.3,12.7-9.4
		C195.6,44.1,194.2,40.2,188.8,39.2z"/>
	<path class="st0" d="M208.8,20.5h-8.7v8h-4.4v5.6h4.4v11.8c0,7.2,1.9,9.3,9.3,9.3c1.6,0,3.2-0.2,4.7-0.3v-6.4
		c-0.8,0-1.5,0.1-2.2,0.1c-1.9,0-3.1-0.5-3.1-2.6V34.1h5.4v-5.6h-5.4V20.5z"/>
	<path class="st0" d="M228.8,27.7c-8.2,0-13.9,6.1-13.9,14c0,8,5.7,14,13.9,14c8.2,0,14-6,14-14C242.8,33.8,237,27.7,228.8,27.7z
		 M228.8,49.1c-4,0-5.3-4-5.3-7.4c0-3.4,1.2-7.4,5.3-7.4s5.3,4,5.3,7.4C234.1,45.2,232.8,49.1,228.8,49.1z"/>
	<path class="st0" d="M255.9,20.5h-8.7v8h-4.4v5.6h4.4v11.8c0,7.2,1.9,9.3,9.3,9.3c1.6,0,3.2-0.2,4.7-0.3v-6.4
		c-0.8,0-1.5,0.1-2.2,0.1c-1.9,0-3.1-0.5-3.1-2.6V34.1h5.4v-5.6h-5.4V20.5z"/>
	<path class="st0" d="M275.8,27.7c-7.8,0-14.3,5.8-14.3,13.9c0,8.9,5.9,14.1,14.5,14.1c5.9,0,11.6-2.7,13.2-8.8h-8.1
		c-0.8,1.9-2.9,2.9-5,2.9c-3.7,0-5.8-2.4-5.9-6h19.5C290.1,34.9,285.3,27.7,275.8,27.7z M270.2,39c0.5-3.2,2.6-5.4,5.6-5.4
		c2.9,0,5,2.5,5.2,5.4H270.2z"/>
	<path class="st0" d="M304.5,49.1c-3.7,0-5.2-3.5-5.2-6.9c0-3.7,0.8-7.8,5.6-7.8c2.2,0,4.2,1.6,4.2,3.8h8.4
		c-0.6-7-6.5-10.5-13.1-10.5c-8.5,0-13.9,6-13.9,14.5c0,8.1,5.9,13.6,13.9,13.6c7,0,12.6-4.1,13.3-11.2h-8.4
		C309.1,47.4,307.6,49.1,304.5,49.1z"/>
	<path class="st0" d="M337.1,27.7c-3.2,0-6.7,1.7-8.1,4.4h-0.1V20.5h-8.7V55h8.7V40.6c0-2.9,1.4-5.7,4.7-5.7c4.7,0,4.3,3.7,4.3,7.3
		V55h8.7V38C346.6,34.2,345.9,27.7,337.1,27.7z"/>
	<polygon class="st1" points="10.7,5.6 10.7,18.5 23.6,5.6 	"/>
	<polygon class="st1" points="36.6,68 49.6,55 49.6,31.5 62.6,18.5 36.6,18.5 	"/>
	<polygon class="st1" points="23.6,18.5 10.7,31.5 10.7,68 23.6,55 23.6,31.5 36.6,18.5 	"/>
</g>
</svg>
